<svg width="1600" height="900" viewBox="0 0 1600 900" fill="none" xmlns="http://www.w3.org/2000/svg">
  <defs>
    <linearGradient id="bg" x1="140" y1="80" x2="1460" y2="820" gradientUnits="userSpaceOnUse">
      <stop stop-color="#EEF7FF" />
      <stop offset="0.5" stop-color="#F6FBF8" />
      <stop offset="1" stop-color="#F4F0FF" />
    </linearGradient>
    <filter id="shadow" x="140" y="88" width="1320" height="724" filterUnits="userSpaceOnUse" color-interpolation-filters="sRGB">
      <feFlood flood-opacity="0" result="BackgroundImageFix" />
      <feColorMatrix in="SourceAlpha" type="matrix" values="0 0 0 0 0 0 0 0 0 0 0 0 0 0 0 0 0 0 127 0" result="hardAlpha" />
      <feOffset dy="18" />
      <feGaussianBlur stdDeviation="20" />
      <feColorMatrix type="matrix" values="0 0 0 0 0.0588235 0 0 0 0 0.0941176 0 0 0 0 0.188235 0 0 0 0.16 0" />
      <feBlend mode="normal" in2="BackgroundImageFix" result="effect1_dropShadow_1_1" />
      <feBlend mode="normal" in="SourceGraphic" in2="effect1_dropShadow_1_1" result="shape" />
    </filter>
    <clipPath id="tile-1">
      <rect x="210" y="150" width="260" height="520" rx="30" />
    </clipPath>
    <clipPath id="tile-2">
      <rect x="490" y="120" width="260" height="520" rx="30" />
    </clipPath>
    <clipPath id="tile-3">
      <rect x="770" y="120" width="260" height="520" rx="30" />
    </clipPath>
    <clipPath id="tile-4">
      <rect x="1050" y="150" width="260" height="520" rx="30" />
    </clipPath>
  </defs>

  <rect width="1600" height="900" fill="url(#bg)" />
  <circle cx="252" cy="166" r="168" fill="#BFE6FF" fill-opacity="0.32" />
  <circle cx="1336" cy="182" r="184" fill="#C9F2D8" fill-opacity="0.28" />
  <circle cx="860" cy="770" r="216" fill="#DCCEFF" fill-opacity="0.2" />

  <g filter="url(#shadow)">
    <rect x="170" y="108" width="1260" height="664" rx="40" fill="#FFFFFF" fill-opacity="0.78" stroke="#D8E3EE" />

    <rect x="210" y="150" width="260" height="520" rx="30" fill="#FFFFFF" stroke="#D3DEEA" />
    <image href="/projects/panivo/dashboard-panivo.png" x="210" y="150" width="260" height="520" preserveAspectRatio="xMidYMin slice" clip-path="url(#tile-1)" />

    <rect x="490" y="120" width="260" height="520" rx="30" fill="#FFFFFF" stroke="#D3DEEA" />
    <image href="/projects/panivo/chat-panivo.png" x="490" y="120" width="260" height="520" preserveAspectRatio="xMidYMin slice" clip-path="url(#tile-2)" />

    <rect x="770" y="120" width="260" height="520" rx="30" fill="#FFFFFF" stroke="#D3DEEA" />
    <image href="/projects/panivo/history-panivo.png" x="770" y="120" width="260" height="520" preserveAspectRatio="xMidYMin slice" clip-path="url(#tile-3)" />

    <rect x="1050" y="150" width="260" height="520" rx="30" fill="#FFFFFF" stroke="#D3DEEA" />
    <image href="/projects/panivo/settings-panivo.png" x="1050" y="150" width="260" height="520" preserveAspectRatio="xMidYMin slice" clip-path="url(#tile-4)" />
  </g>
</svg>
